<svg xmlns="http://www.w3.org/2000/svg" xmlns:xlink="http://www.w3.org/1999/xlink" viewBox="0 0 1369.62 33.4"><defs><style>.cls-1{fill:url(#linear-gradient);}</style><linearGradient id="linear-gradient" x1="619.48" y1="143.15" x2="710.34" y2="143.15" gradientTransform="matrix(-0.08, -0.44, 1, -0.01, 595.39, 309.81)" gradientUnits="userSpaceOnUse"><stop offset="0" stop-color="#711f26"/><stop offset="0.01" stop-color="#721f26"/><stop offset="0.42" stop-color="#a91e2a"/><stop offset="0.43" stop-color="#a91e2a"/><stop offset="0.56" stop-color="#9f1e2a"/><stop offset="0.64" stop-color="#991e29"/><stop offset="0.74" stop-color="#881e28"/><stop offset="0.85" stop-color="#6c1f26"/><stop offset="0.98" stop-color="#451f23"/><stop offset="1" stop-color="#3f1f22"/></linearGradient></defs><g id="Layer_2" data-name="Layer 2"><g id="OBJECTS"><path class="cls-1" d="M1180.13,7.91l14,5,47.07-3,25.33,2.41s101.21-.86,103.08-.84h-.06c-3.11.3-100.93,5.85-100.93,5.85l-36.81-2-63.39,1.86-10.31-1.84-35.91,1.67,7.8,3.37-62.12-4.57-24.58,2.72-96,2.9-27.55-2.7-21.85,2.49L838.07,20,815.4,22l-82.8-.1-45.19,5.88-31.88-4.46-36.1,3.11-22.89,3.26,2.27,3.7-40.7,0L513.25,30l-37.34-5-27.86-.34-74.47,5.91-30.15-.36L330,31.26l-21.76-5-35.8-2.54-5.69,1.51-66.37-3.57L186.3,24.26l-51.57-4.57L116.2,14.34,0,0,111.14,7.71l24.39,2.41,36.13,0,29.62,4.56L269,14.9l117-8.81L491.24,9.2l79.58.45,9.7,2.61L602.8,9.92l38.54-.78,56.91-4.76,28,6.65,8.95-2.13,67.1,1.34,57.44-5.06,35.7,6.73,34-3.91,76.92,3,47.7-.6L1103.86,7l44.28,4.08Z"/></g></g></svg>